<svg xmlns="http://www.w3.org/2000/svg" fill="none" viewBox="0 0 54 53.99">
 <g id="Layer_1">
  <title>Layer 1</title>
  <g stroke="null" id="svg_1">
   <path stroke="null" d="m29.15,19.767c2.42,-0.74 5.068,0.506 5.823,0.911c0.384,-0.32 1.316,-0.968 2.22,-0.62c0.392,0.15 0.655,0.385 0.798,0.698c0.092,0.214 0.114,0.428 0.1,0.599c1.203,0.291 1.608,0.932 1.793,1.217c0.014,0.021 0.029,0.042 0.036,0.057c0.128,0.064 0.59,0.242 1.537,0.57a0.646,0.646 0 0 1 0.4,0.383a0.645,0.645 0 0 1 -0.036,0.549a2.574,2.574 0 0 1 -1.951,1.324a22.877,22.877 0 0 0 -3.894,0.825l-0.028,0.008a2.573,2.573 0 0 0 -1.018,0.598l13.048,0c-0.171,-11.426 -9.432,-20.688 -20.858,-20.857l0,13.916c0.783,0.029 1.48,-0.007 2.029,-0.178l0.001,0zm-12.094,0.434c2.092,-1.025 4.975,-0.726 7.517,-0.462c0.654,0.064 1.295,0.135 1.893,0.178l0,-13.897c-11.425,0.172 -20.686,9.433 -20.856,20.858l6.92,0c-0.157,-2.22 1.138,-5.018 4.527,-6.677l-0.001,0zm9.161,8.955c-1.957,0.99 -4.1,0.847 -5.16,0.69c-0.855,1.467 -1.026,2.528 -1.054,2.97c1.224,0.34 1.523,1.309 1.502,1.8l-0.015,0.313l-4.342,0l-0.085,-0.2c-0.506,-1.188 -0.527,-2.27 -0.42,-3.167c-0.79,0.577 -1.246,1.04 -1.488,1.324c1.046,0.392 1.31,1.267 1.296,1.73l-0.015,0.313l-4.441,0l-0.086,-0.2c-0.733,-1.736 -0.22,-3.26 0.228,-4.605c0.306,-0.904 0.59,-1.765 0.477,-2.598l-7.005,0c0.171,11.425 9.432,20.686 20.857,20.857l0,-14.002c-0.733,-1.95 -0.47,-4.114 -0.249,-5.225z" fill="#FFE7CA" id="svg_2"/>
   <path stroke="null" d="m27.121,34.274l3.623,0c-0.15,-0.448 -0.648,-0.647 -1.523,-0.925l-0.313,-0.1l0.107,-0.313c0.014,-0.035 0.299,-0.904 0.932,-2.043l0.285,-0.52l0.285,0.527c1.188,2.214 2.633,3.182 2.954,3.382l3.239,0c-0.15,-0.449 -0.648,-0.648 -1.524,-0.926c-0.384,-0.12 -0.925,-0.648 -1.658,-3.666c-0.42,-1.737 0.562,-3.502 2.242,-4.022l0.028,-0.007a22.64,22.64 0 0 1 4,-0.847a1.887,1.887 0 0 0 1.453,-0.99l0,-0.007c-1.594,-0.548 -1.694,-0.633 -1.765,-0.697a0.854,0.854 0 0 1 -0.15,-0.192c-0.163,-0.257 -0.512,-0.79 -1.687,-0.997l-0.391,-0.071l0.142,-0.37c0.05,-0.135 0.164,-0.598 -0.448,-0.826c-0.634,-0.242 -1.453,0.377 -1.716,0.64l-0.178,0.179l-0.214,-0.128c-0.028,-0.015 -2.982,-1.745 -5.51,-0.969c-1.202,0.37 -2.968,0.186 -4.825,-0.007c-2.456,-0.256 -5.24,-0.54 -7.162,0.399c-3.36,1.644 -4.484,4.456 -4.107,6.506c0.192,1.032 -0.135,2.008 -0.484,3.04c-0.413,1.238 -0.84,2.512 -0.32,3.943l3.317,0c-0.1,-0.306 -0.384,-0.74 -1.189,-0.89l-0.427,-0.078l0.2,-0.384c0.02,-0.036 0.505,-0.961 2.583,-2.342l0.655,-0.434l-0.156,0.768c-0.192,0.933 -0.32,2.058 0.17,3.36l3.218,0c-0.1,-0.306 -0.384,-0.74 -1.189,-0.89l-0.242,-0.042l-0.021,-0.242c-0.007,-0.064 -0.121,-1.51 1.26,-3.78l0.114,-0.192l0.22,0.035c0.99,0.171 3.517,0.427 5.588,-0.947l0.748,-0.498l-0.256,0.862c-0.015,0.05 -0.926,3.16 0.092,5.701z" fill="#C49A6C" id="svg_3"/>
   <path stroke="null" d="m14.564,33.385l-0.427,-0.079l0.2,-0.384c0.014,-0.036 0.42,-0.79 2.035,-1.958c-0.178,0.057 -0.356,0.114 -0.54,0.157c-0.257,0.064 -0.57,0.12 -0.834,0.043c-0.313,-0.1 -0.391,-0.399 -0.263,-0.677c0.17,-0.37 0.52,-0.555 0.869,-0.726c0.355,-0.17 0.697,-0.334 0.718,-0.768c0.015,-0.235 0.015,-0.463 0.065,-0.691c0.05,-0.235 0.149,-0.456 0.213,-0.69c0.142,-0.499 -0.064,-1.018 -0.228,-1.488c-0.313,-0.918 -0.712,-1.844 -0.59,-2.84c0.106,-0.862 0.583,-1.588 1.167,-2.214l0.128,-0.128c-3.146,1.658 -4.2,4.37 -3.83,6.37c0.193,1.033 -0.135,2.008 -0.484,3.04c-0.413,1.239 -0.84,2.513 -0.32,3.944l3.31,0c-0.1,-0.32 -0.377,-0.755 -1.189,-0.911z" fill="#AA7F55" id="svg_4"/>
   <path stroke="null" d="m14.564,33.385l-0.427,-0.079l0.2,-0.384c0.014,-0.021 0.17,-0.313 0.661,-0.812c-0.007,-0.007 -0.02,-0.014 -0.028,-0.021c-0.413,-0.27 -0.876,-0.577 -1.139,-1.004c-0.456,-0.74 -0.036,-1.715 0.242,-2.441c0.185,-0.484 0.463,-1.047 0.413,-1.58c-0.029,-0.278 -0.121,-0.549 -0.157,-0.826a2.707,2.707 0 0 1 0.029,-0.72c0.142,-0.989 0.512,-1.914 0.996,-2.783c0.207,-0.37 0.399,-0.754 0.605,-1.124c-2.277,1.658 -3.032,3.936 -2.712,5.673c0.193,1.032 -0.135,2.008 -0.484,3.04c-0.413,1.238 -0.84,2.512 -0.32,3.943l3.31,0c-0.1,-0.292 -0.377,-0.726 -1.189,-0.883l0,0.001z" fill="#8E6036" id="svg_5"/>
   <path stroke="null" d="m35.756,25.668l0.028,-0.007a22.67,22.67 0 0 1 4,-0.847a1.9,1.9 0 0 0 1.111,-0.534a5.615,5.615 0 0 1 -0.498,0.1c-0.755,0.107 -1.516,0 -2.278,-0.007c-0.705,0 -1.41,0.064 -2.107,0.128c-0.684,0.064 -1.381,0.163 -2.036,0.384a4.402,4.402 0 0 0 -1.644,1.004c-0.492,0.463 -0.911,1.032 -1.16,1.666c-0.207,0.52 -0.3,1.096 -0.385,1.637c-0.107,0.648 -0.178,1.41 -0.057,2.107c1.139,1.936 2.435,2.804 2.734,2.99l3.238,0c-0.15,-0.449 -0.647,-0.648 -1.523,-0.926c-0.384,-0.12 -0.925,-0.648 -1.659,-3.666c-0.427,-1.744 0.556,-3.51 2.236,-4.029z" fill="#AA7F55" id="svg_6"/>
   <path stroke="null" d="m40.411,24.373c-0.278,0.035 -0.555,0.05 -0.833,0.042c-0.498,0.057 -0.99,0.157 -1.473,0.27c-0.733,0.179 -1.474,0.371 -2.193,0.606c-1.089,0.356 -2.036,0.968 -2.64,1.957a2.825,2.825 0 0 0 -0.413,1.723c0.056,0.612 0.284,1.21 0.498,1.787c0.178,0.491 0.285,1.004 0.455,1.495c0.164,0.47 0.399,0.96 0.862,1.188c0.306,0.15 0.654,0.193 0.975,0.32c0.306,0.122 0.598,0.3 0.897,0.442c0.05,0.029 0.107,0.05 0.156,0.071c-0.15,-0.441 -0.647,-0.647 -1.523,-0.918c-0.384,-0.12 -0.925,-0.648 -1.659,-3.666c-0.42,-1.737 0.563,-3.502 2.243,-4.022l0.028,-0.007a22.67,22.67 0 0 1 4,-0.847a1.9,1.9 0 0 0 1.111,-0.534c-0.163,0.036 -0.327,0.064 -0.49,0.093l-0.001,0z" fill="#8E6036" id="svg_7"/>
   <path stroke="null" d="m19.618,33.385l-0.242,-0.043l-0.021,-0.207a57.004,57.004 0 0 1 -0.128,-0.021c-0.228,-0.028 -0.456,-0.064 -0.662,-0.178c-0.47,-0.263 -0.456,-0.783 -0.527,-1.246c-0.05,-0.284 -0.178,-0.555 -0.299,-0.818c-0.071,-0.157 -0.142,-0.306 -0.213,-0.463l-0.107,0.506c-0.192,0.932 -0.32,2.057 0.17,3.36l3.218,0c-0.092,-0.3 -0.377,-0.734 -1.189,-0.89zm9.603,-0.029l-0.313,-0.1l0.007,-0.02c-0.74,-0.293 -1.41,-0.77 -1.445,-1.631c-0.014,-0.363 0.092,-0.719 0.164,-1.068a3.25,3.25 0 0 0 0.02,-0.982c-0.056,-0.47 -0.191,-0.99 -0.512,-1.36l-0.12,0.392c-0.008,0.028 -0.926,3.139 0.099,5.687l3.623,0c-0.15,-0.441 -0.648,-0.647 -1.523,-0.918z" fill="#AA7F55" id="svg_8"/>
   <path stroke="null" d="m34.147,29.534c0.733,3.003 1.203,3.196 1.224,3.203c0.904,0.277 2.029,0.626 2.029,1.865l0,0.327l-4.1,0l-0.071,-0.035c-0.072,-0.036 -1.61,-0.876 -2.99,-3.16a14.6,14.6 0 0 0 -0.498,1.11c0.825,0.27 1.7,0.669 1.7,1.765l0,0.327l-4.32,0l0,13.461c11.425,-0.17 20.686,-9.432 20.857,-20.857l-13.56,0a2.733,2.733 0 0 0 -0.271,1.994z" fill="#FFE7CA" id="svg_9"/>
   <path stroke="null" d="m54,26.673l-5.168,0c-0.17,-11.781 -9.724,-21.334 -21.505,-21.505l0,-5.168l-0.647,0l0,5.168c-11.788,0.17 -21.341,9.724 -21.512,21.505l-5.168,0l0,0.647l5.168,0c0.17,11.781 9.724,21.334 21.505,21.505l0,5.168l0.647,0l0,-5.168c11.781,-0.17 21.334,-9.724 21.505,-21.505l5.168,0l0,-0.647l0.007,0zm-5.816,0l-13.048,0a2.66,2.66 0 0 1 1.018,-0.598l0.029,-0.008a22.59,22.59 0 0 1 3.894,-0.825a2.57,2.57 0 0 0 1.95,-1.324a0.645,0.645 0 0 0 0.035,-0.548a0.665,0.665 0 0 0 -0.398,-0.385c-0.947,-0.327 -1.41,-0.505 -1.538,-0.57a0.646,0.646 0 0 0 -0.035,-0.056c-0.185,-0.285 -0.591,-0.919 -1.794,-1.217a1.26,1.26 0 0 0 -0.1,-0.598c-0.142,-0.314 -0.406,-0.549 -0.797,-0.698c-0.904,-0.349 -1.83,0.299 -2.221,0.62c-0.762,-0.406 -3.403,-1.652 -5.823,-0.912c-0.54,0.164 -1.238,0.207 -2.029,0.178l0,-13.916c11.425,0.17 20.686,9.432 20.857,20.857zm-18.757,6.477c0.876,0.27 1.374,0.477 1.524,0.926l-3.624,0c-1.025,-2.549 -0.106,-5.66 -0.1,-5.688l0.257,-0.861l-0.747,0.498c-2.072,1.374 -4.599,1.118 -5.588,0.947l-0.221,-0.036l-0.114,0.192c-1.38,2.264 -1.267,3.716 -1.26,3.78l0.022,0.242l0.242,0.043c0.811,0.15 1.096,0.584 1.188,0.89l-3.216,0c-0.491,-1.303 -0.37,-2.428 -0.171,-3.36l0.157,-0.769l-0.655,0.434c-2.079,1.381 -2.57,2.3 -2.584,2.342l-0.2,0.385l0.428,0.078c0.811,0.15 1.096,0.584 1.188,0.89l-3.317,0c-0.52,-1.431 -0.092,-2.705 0.32,-3.944c0.35,-1.032 0.67,-2.007 0.485,-3.04c-0.378,-2.057 0.74,-4.861 4.107,-6.506c1.922,-0.94 4.705,-0.654 7.16,-0.398c1.866,0.192 3.624,0.377 4.827,0.007c2.527,-0.776 5.481,0.947 5.51,0.968l0.213,0.128l0.178,-0.178c0.264,-0.263 1.082,-0.883 1.716,-0.64c0.612,0.235 0.491,0.697 0.448,0.825l-0.142,0.37l0.391,0.072c1.175,0.206 1.517,0.74 1.688,0.996c0.05,0.079 0.092,0.143 0.149,0.192c0.064,0.057 0.17,0.15 1.765,0.698l0,0.007c-0.292,0.541 -0.84,0.911 -1.452,0.99a23.148,23.148 0 0 0 -4,0.847l-0.029,0.007c-1.68,0.52 -2.662,2.285 -2.242,4.022c0.733,3.025 1.274,3.545 1.658,3.666c0.876,0.27 1.374,0.477 1.524,0.925l-3.24,0c-0.32,-0.2 -1.764,-1.167 -2.953,-3.381l-0.285,-0.527l-0.285,0.52c-0.633,1.146 -0.925,2.007 -0.932,2.043l-0.107,0.313l0.32,0.085l-0.001,0zm-2.754,-27.334l0,13.888a49.427,49.427 0 0 1 -1.894,-0.178c-2.541,-0.264 -5.424,-0.563 -7.517,0.462c-3.395,1.659 -4.684,4.457 -4.527,6.677l-6.92,0c0.172,-11.417 9.433,-20.678 20.858,-20.85l0,0.001zm-20.857,21.511l7.004,0c0.114,0.833 -0.17,1.688 -0.477,2.599c-0.448,1.345 -0.96,2.868 -0.227,4.605l0.085,0.2l4.442,0l0.014,-0.314c0.021,-0.462 -0.242,-1.338 -1.296,-1.73c0.242,-0.284 0.698,-0.74 1.488,-1.323c-0.107,0.896 -0.085,1.979 0.42,3.167l0.086,0.2l4.342,0l0.014,-0.314c0.021,-0.49 -0.278,-1.459 -1.502,-1.8c0.029,-0.442 0.2,-1.503 1.054,-2.969c1.067,0.164 3.203,0.299 5.16,-0.69c-0.22,1.117 -0.49,3.274 0.25,5.232l0,14c-11.425,-0.178 -20.686,-9.439 -20.857,-20.864l0,0.001zm21.511,20.857l0,-13.46l4.321,0l0,-0.328c0,-1.09 -0.875,-1.495 -1.701,-1.765c0.1,-0.25 0.263,-0.641 0.498,-1.11c1.374,2.284 2.919,3.124 2.99,3.16l0.071,0.035l4.1,0l0,-0.327c0,-1.239 -1.124,-1.588 -2.028,-1.865c-0.022,-0.007 -0.492,-0.2 -1.225,-3.203a2.78,2.78 0 0 1 0.27,-2.008l13.561,0c-0.17,11.44 -9.432,20.7 -20.857,20.871z" fill="#000" id="svg_10"/>
   <path stroke="null" d="m37.912,22.458a0.293,0.293 0 0 1 -0.291,0.292a0.293,0.293 0 0 1 -0.292,-0.292c0,-0.157 0.128,-0.292 0.292,-0.292a0.302,0.302 0 0 1 0.291,0.292z" fill="#000" id="svg_11"/>
   <path stroke="null" d="m20.316,23.654c0.17,2.804 -1.659,5.096 -1.659,5.096s1.445,-0.953 2.542,-2.769c0.42,-0.697 1.494,-0.163 1.195,0.598c-0.163,0.406 -0.363,0.826 -0.612,1.26c0,0 1.31,-0.583 2.392,-2.128c0.463,-0.662 1.474,-0.078 1.16,0.662l-0.078,0.185s1.103,-0.662 1.93,-2.05c0.355,-0.598 1.266,-0.335 1.245,0.363c-0.014,0.413 -0.05,0.847 -0.114,1.288c-0.37,2.606 0.228,4.271 0.228,4.271s-0.143,-2.534 0.89,-4.94c0.178,-0.413 0.306,-0.811 0.405,-1.196c0.214,-0.825 1.467,-0.555 1.31,0.285c-0.043,0.214 -0.107,0.42 -0.2,0.634c-0.918,2.12 -0.918,3.146 -0.918,3.146s1.602,-4.093 4.008,-4.84c2.406,-0.748 3.225,-1.645 3.225,-1.645l0.142,-0.37c0.05,-0.135 0.164,-0.598 -0.448,-0.826c-0.634,-0.242 -1.453,0.377 -1.716,0.64l-0.178,0.179l-0.213,-0.128c-0.029,-0.014 -2.983,-1.744 -5.51,-0.968c-1.203,0.37 -2.968,0.185 -4.826,-0.008c-2.214,-0.227 -4.691,-0.484 -6.563,0.157c0.128,0.014 2.2,0.384 2.363,3.104z" fill="#AA7F55" id="svg_12"/>
   <path stroke="null" d="m21.79,21.568c0.192,0.441 0.341,0.883 0.384,1.367a2.59,2.59 0 0 1 -0.014,0.57c-0.015,0.099 -0.1,0.362 -0.029,0.426c0.078,0.064 0.32,-0.007 0.413,-0.021c0.164,-0.029 0.334,-0.064 0.498,-0.029c0.171,0.036 0.32,0.136 0.42,0.285c0.029,0.036 0.057,0.128 0.093,0.171c0.007,0 0.028,0.007 0.042,0.007c0.05,0 0.093,-0.014 0.136,-0.035c0.163,-0.079 0.299,-0.2 0.462,-0.27a1.89,1.89 0 0 1 0.563,-0.122c0.199,-0.014 0.427,-0.007 0.612,0.071c0.12,0.057 0.285,0.235 0.427,0.228c0.114,0 0.206,-0.164 0.278,-0.242c0.106,-0.121 0.227,-0.213 0.37,-0.299c0.356,-0.2 0.747,-0.299 1.153,-0.349c0.399,-0.05 0.797,-0.035 1.196,0c0.12,0.014 0.228,0.029 0.341,0.071c0.079,0.029 0.157,0.079 0.235,0.065c0.143,-0.022 0.264,-0.178 0.363,-0.264c0.314,-0.27 0.705,-0.413 1.118,-0.377c0.427,0.035 0.797,0.242 1.21,0.313c0.684,0.114 1.289,-0.342 1.872,-0.612c0.306,-0.142 0.62,-0.256 0.961,-0.285c0.484,-0.043 0.983,0.036 1.467,-0.05c0.398,-0.064 0.704,-0.256 0.96,-0.57c0.022,-0.028 0.043,-0.049 0.065,-0.078l0.021,-0.056c0.05,-0.136 0.164,-0.598 -0.448,-0.826c-0.634,-0.242 -1.453,0.377 -1.716,0.64l-0.178,0.178l-0.213,-0.128c-0.029,-0.014 -2.983,-1.744 -5.51,-0.968c-1.203,0.37 -2.968,0.185 -4.826,-0.007c-1.16,-0.12 -2.4,-0.249 -3.58,-0.249c0.376,0.42 0.64,0.954 0.853,1.445l0.001,0z" fill="#8E6036" id="svg_13"/>
   <path stroke="null" d="m23.69,21.71c0.27,0.335 0.59,0.2 0.96,0.15c0.321,-0.043 0.62,0.007 0.94,0.057c0.328,0.05 0.648,-0.014 0.969,-0.114c0.647,-0.2 1.245,-0.477 1.943,-0.47c0.349,0 0.67,0.086 0.997,0.207c0.32,0.12 0.619,0.206 0.96,0.242c0.691,0.078 1.417,0.092 2.093,-0.079c0.35,-0.092 0.69,-0.15 1.054,-0.163c0.356,-0.015 0.712,0 1.068,0c0.697,-0.008 1.373,-0.114 2.007,-0.42c0.192,-0.093 0.377,-0.2 0.548,-0.32a0.994,0.994 0 0 0 -0.263,-0.143c-0.634,-0.242 -1.452,0.377 -1.716,0.64l-0.178,0.178l-0.213,-0.128c-0.029,-0.014 -2.983,-1.744 -5.51,-0.968c-1.203,0.37 -2.968,0.185 -4.826,-0.007c-0.491,-0.05 -0.997,-0.1 -1.502,-0.142c0.242,0.477 0.327,1.06 0.669,1.48z" fill="#7C4D27" id="svg_14"/>
   <path stroke="null" d="m32.182,13.425l0.74,0.47l0.043,0.199l-0.74,-0.47l0.1,0.448l0.74,0.47l0.043,0.2l-0.74,-0.47l0.099,0.448l0.74,0.47l0.043,0.2l-0.74,-0.47l0.12,0.548l1.21,0.761l1.061,4.713c0.15,-0.036 0.3,-0.079 0.449,-0.114l-1.054,-4.698l0.762,-1.21l-0.121,-0.549l-0.47,0.74l-0.042,-0.199l0.47,-0.74l-0.1,-0.449l-0.47,0.74l-0.043,-0.198l0.47,-0.74l-0.1,-0.45l-0.47,0.741l-0.042,-0.2l0.47,-0.74l-0.136,-0.612l-0.94,1.48l-1.48,-0.939l0.128,0.62zm-4.271,-0.285l0.819,0.306l0.085,0.185l-0.819,-0.306l0.193,0.413l0.818,0.306l0.086,0.185l-0.819,-0.306l0.192,0.413l0.819,0.299l0.085,0.185l-0.818,-0.3l0.235,0.513l1.338,0.492l2.022,4.385c0.142,-0.065 0.277,-0.136 0.412,-0.207l-2.014,-4.37l0.491,-1.339l-0.235,-0.512l-0.299,0.818l-0.085,-0.185l0.299,-0.819l-0.192,-0.412l-0.3,0.818l-0.085,-0.185l0.3,-0.819l-0.193,-0.412l-0.306,0.818l-0.086,-0.185l0.3,-0.818l-0.264,-0.57l-0.605,1.644l-1.644,-0.605l0.27,0.57z" fill="#000" id="svg_15"/>
  </g>
 </g>

</svg>