<svg width="230" height="54" fill="none" xmlns="http://www.w3.org/2000/svg"><path d="M78.402 29.782c.555.72.825 1.62.825 2.7 0 1.485-.57 2.625-1.71 3.435-1.14.81-2.805 1.216-4.996 1.216H64V20h8.026c2.026 0 3.586.39 4.666 1.185 1.08.795 1.635 1.876 1.635 3.27 0 .856-.195 1.606-.585 2.251-.39.66-.93 1.155-1.62 1.515.975.33 1.725.84 2.28 1.56zm-11.207-7.277v4.726h4.501c1.11 0 1.966-.195 2.55-.6.6-.405.9-.975.9-1.755 0-.78-.3-1.38-.9-1.77-.6-.406-1.455-.6-2.55-.6h-4.5zm8.822 9.662c0-1.65-1.23-2.476-3.69-2.476h-5.132v4.936h5.131c2.46.015 3.69-.81 3.69-2.46zm22.878 2.31v2.67H86.053V20.016H98.55v2.67h-9.316v4.456H97.5v2.626h-8.266v4.725h9.661v-.015zm18.078-1.305h-8.566l-1.696 3.96h-3.285L111.137 20h3.136l7.726 17.133h-3.331l-1.695-3.961zm-1.05-2.49l-3.226-7.486-3.21 7.486h6.436zm22.908 6.451l-3.495-5.011c-.15.015-.36.03-.66.03h-3.871v4.996h-3.18V20.015h7.051c1.485 0 2.775.24 3.87.735 1.095.495 1.951 1.185 2.536 2.1.585.916.885 1.996.885 3.256 0 1.29-.315 2.4-.945 3.33-.631.93-1.531 1.62-2.701 2.086l3.946 5.626h-3.436v-.015zm-1.155-13.547c-.72-.585-1.77-.886-3.15-.886h-3.721v6.826h3.721c1.38 0 2.445-.3 3.15-.9.72-.6 1.08-1.44 1.08-2.535 0-1.08-.36-1.92-1.08-2.505zm26.059-3.571v17.133h-1.785V29.24h-10.712v7.907h-1.815V20.015h1.815v7.636h10.712v-7.636h1.785zm10.712 15.362c-1.246-1.275-1.861-3.12-1.861-5.55v-9.812h1.816v9.736c0 1.996.45 3.481 1.35 4.456.9.975 2.19 1.47 3.885 1.47 1.711 0 3.016-.495 3.916-1.47.9-.975 1.35-2.46 1.35-4.456v-9.736h1.755v9.811c0 2.43-.615 4.276-1.845 5.551-1.23 1.276-2.955 1.906-5.176 1.906-2.22 0-3.96-.63-5.19-1.906zm35.405-15.362v17.133h-1.485l-11.012-13.893v13.893h-1.815V20.015h1.485l11.027 13.892V20.015h1.8zm12.317 1.56h-6.016v-1.56H230v1.56h-6.016v15.558h-1.815V21.575z" fill="#fff"/><path d="M29.15 19.767c2.42-.74 5.068.506 5.823.911.384-.32 1.316-.968 2.22-.62.392.15.655.385.798.698.092.214.114.428.1.599 1.203.291 1.608.932 1.793 1.217.014.021.029.042.036.057.128.064.59.242 1.537.57a.646.646 0 01.4.383.645.645 0 01-.036.549 2.574 2.574 0 01-1.951 1.324 22.877 22.877 0 00-3.894.825l-.028.008a2.573 2.573 0 00-1.018.598h13.048C47.807 15.46 38.546 6.198 27.12 6.029v13.916c.783.029 1.48-.007 2.029-.178zm-12.094.434c2.092-1.025 4.975-.726 7.517-.462.654.064 1.295.135 1.893.178V6.02C15.041 6.192 5.78 15.453 5.61 26.878h6.92c-.157-2.22 1.138-5.018 4.527-6.677zm9.161 8.955c-1.957.99-4.1.847-5.16.69-.855 1.467-1.026 2.528-1.054 2.97 1.224.34 1.523 1.309 1.502 1.8l-.015.313h-4.342l-.085-.2c-.506-1.188-.527-2.27-.42-3.167-.79.577-1.246 1.04-1.488 1.324 1.046.392 1.31 1.267 1.296 1.73l-.015.313h-4.441l-.086-.2c-.733-1.736-.22-3.26.228-4.605.306-.904.59-1.765.477-2.598H5.609c.171 11.425 9.432 20.686 20.857 20.857V34.381c-.733-1.95-.47-4.114-.249-5.225z" fill="#FFE7CA"/><path d="M27.121 34.274h3.623c-.15-.448-.648-.647-1.523-.925l-.313-.1.107-.313c.014-.035.299-.904.932-2.043l.285-.52.285.527c1.188 2.214 2.633 3.182 2.954 3.382h3.239c-.15-.449-.648-.648-1.524-.926-.384-.12-.925-.648-1.658-3.666-.42-1.737.562-3.502 2.242-4.022l.028-.007a22.64 22.64 0 014-.847 1.887 1.887 0 001.453-.99v-.007c-1.594-.548-1.694-.633-1.765-.697a.854.854 0 01-.15-.192c-.163-.257-.512-.79-1.687-.997l-.391-.071.142-.37c.05-.135.164-.598-.448-.826-.634-.242-1.453.377-1.716.64l-.178.179-.214-.128c-.028-.015-2.982-1.745-5.51-.969-1.202.37-2.968.186-4.825-.007-2.456-.256-5.24-.54-7.162.399-3.36 1.644-4.484 4.456-4.107 6.506.192 1.032-.135 2.008-.484 3.04-.413 1.238-.84 2.512-.32 3.943h3.317c-.1-.306-.384-.74-1.189-.89l-.427-.078.2-.384c.02-.036.505-.961 2.583-2.342l.655-.434-.156.768c-.192.933-.32 2.058.17 3.36h3.218c-.1-.306-.384-.74-1.189-.89l-.242-.042-.021-.242c-.007-.064-.121-1.51 1.26-3.78l.114-.192.22.035c.99.171 3.517.427 5.588-.947l.748-.498-.256.862c-.015.05-.926 3.16.092 5.701z" fill="#C49A6C"/><path d="M14.564 33.385l-.427-.079.2-.384c.014-.036.42-.79 2.035-1.958-.178.057-.356.114-.54.157-.257.064-.57.12-.834.043-.313-.1-.391-.399-.263-.677.17-.37.52-.555.869-.726.355-.17.697-.334.718-.768.015-.235.015-.463.065-.691.05-.235.149-.456.213-.69.142-.499-.064-1.018-.228-1.488-.313-.918-.712-1.844-.59-2.84.106-.862.583-1.588 1.167-2.214l.128-.128c-3.146 1.658-4.2 4.37-3.83 6.37.193 1.033-.135 2.008-.484 3.04-.413 1.239-.84 2.513-.32 3.944h3.31c-.1-.32-.377-.755-1.189-.911z" fill="#AA7F55"/><path d="M14.564 33.385l-.427-.079.2-.384c.014-.021.17-.313.661-.812-.007-.007-.02-.014-.028-.021-.413-.27-.876-.577-1.139-1.004-.456-.74-.036-1.715.242-2.441.185-.484.463-1.047.413-1.58-.029-.278-.121-.549-.157-.826a2.707 2.707 0 01.029-.72c.142-.989.512-1.914.996-2.783.207-.37.399-.754.605-1.124-2.277 1.658-3.032 3.936-2.712 5.673.193 1.032-.135 2.008-.484 3.04-.413 1.238-.84 2.512-.32 3.943h3.31c-.1-.292-.377-.726-1.189-.883z" fill="#8E6036"/><path d="M35.756 25.668l.028-.007a22.67 22.67 0 014-.847 1.9 1.9 0 001.111-.534 5.615 5.615 0 01-.498.1c-.755.107-1.516 0-2.278-.007-.705 0-1.41.064-2.107.128-.684.064-1.381.163-2.036.384a4.402 4.402 0 00-1.644 1.004c-.492.463-.911 1.032-1.16 1.666-.207.52-.3 1.096-.385 1.637-.107.648-.178 1.41-.057 2.107 1.139 1.936 2.435 2.804 2.734 2.99h3.238c-.15-.449-.647-.648-1.523-.926-.384-.12-.925-.648-1.659-3.666-.427-1.744.556-3.51 2.236-4.029z" fill="#AA7F55"/><path d="M40.411 24.373c-.278.035-.555.05-.833.042-.498.057-.99.157-1.473.27-.733.179-1.474.371-2.193.606-1.089.356-2.036.968-2.64 1.957a2.825 2.825 0 00-.413 1.723c.056.612.284 1.21.498 1.787.178.491.285 1.004.455 1.495.164.47.399.96.862 1.188.306.15.654.193.975.32.306.122.598.3.897.442.05.029.107.05.156.071-.15-.441-.647-.647-1.523-.918-.384-.12-.925-.648-1.659-3.666-.42-1.737.563-3.502 2.243-4.022l.028-.007a22.67 22.67 0 014-.847 1.9 1.9 0 001.111-.534c-.163.036-.327.064-.49.093z" fill="#8E6036"/><path d="M19.618 33.385l-.242-.043-.021-.207a57.004 57.004 0 01-.128-.021c-.228-.028-.456-.064-.662-.178-.47-.263-.456-.783-.527-1.246-.05-.284-.178-.555-.299-.818-.071-.157-.142-.306-.213-.463l-.107.506c-.192.932-.32 2.057.17 3.36h3.218c-.092-.3-.377-.734-1.189-.89zm9.603-.029l-.313-.1.007-.02c-.74-.293-1.41-.77-1.445-1.631-.014-.363.092-.719.164-1.068a3.25 3.25 0 00.02-.982c-.056-.47-.191-.99-.512-1.36l-.12.392c-.008.028-.926 3.139.099 5.687h3.623c-.15-.441-.648-.647-1.523-.918z" fill="#AA7F55"/><path d="M34.147 29.534c.733 3.003 1.203 3.196 1.224 3.203.904.277 2.029.626 2.029 1.865v.327h-4.1l-.071-.035c-.072-.036-1.61-.876-2.99-3.16a14.6 14.6 0 00-.498 1.11c.825.27 1.7.669 1.7 1.765v.327h-4.32v13.461c11.425-.17 20.686-9.432 20.857-20.857h-13.56a2.733 2.733 0 00-.271 1.994z" fill="#FFE7CA"/><path d="M54 26.673h-5.168c-.17-11.781-9.724-21.334-21.505-21.505V0h-.647v5.168c-11.788.17-21.341 9.724-21.512 21.505H0v.647h5.168c.17 11.781 9.724 21.334 21.505 21.505v5.168h.647v-5.168c11.781-.17 21.334-9.724 21.505-21.505h5.168v-.647H54zm-5.816 0H35.136a2.66 2.66 0 011.018-.598l.029-.008a22.59 22.59 0 013.894-.825 2.57 2.57 0 001.95-1.324.645.645 0 00.035-.548.665.665 0 00-.398-.385c-.947-.327-1.41-.505-1.538-.57a.646.646 0 00-.035-.056c-.185-.285-.591-.919-1.794-1.217a1.26 1.26 0 00-.1-.598c-.142-.314-.406-.549-.797-.698-.904-.349-1.83.299-2.221.62-.762-.406-3.403-1.652-5.823-.912-.54.164-1.238.207-2.029.178V5.816c11.425.17 20.686 9.432 20.857 20.857zM29.427 33.15c.876.27 1.374.477 1.524.926h-3.624c-1.025-2.549-.106-5.66-.1-5.688l.257-.861-.747.498c-2.072 1.374-4.599 1.118-5.588.947l-.221-.036-.114.192c-1.38 2.264-1.267 3.716-1.26 3.78l.022.242.242.043c.811.15 1.096.584 1.188.89H17.79c-.491-1.303-.37-2.428-.171-3.36l.157-.769-.655.434c-2.079 1.381-2.57 2.3-2.584 2.342l-.2.385.428.078c.811.15 1.096.584 1.188.89h-3.317c-.52-1.431-.092-2.705.32-3.944.35-1.032.67-2.007.485-3.04-.378-2.057.74-4.861 4.107-6.506 1.922-.94 4.705-.654 7.16-.398 1.866.192 3.624.377 4.827.007 2.527-.776 5.481.947 5.51.968l.213.128.178-.178c.264-.263 1.082-.883 1.716-.64.612.235.491.697.448.825l-.142.37.391.072c1.175.206 1.517.74 1.688.996.05.079.092.143.149.192.064.057.17.15 1.765.698v.007c-.292.541-.84.911-1.452.99a23.148 23.148 0 00-4 .847l-.029.007c-1.68.52-2.662 2.285-2.242 4.022.733 3.025 1.274 3.545 1.658 3.666.876.27 1.374.477 1.524.925h-3.24c-.32-.2-1.764-1.167-2.953-3.381l-.285-.527-.285.52c-.633 1.146-.925 2.007-.932 2.043l-.107.313.32.085zM26.673 5.816v13.888a49.427 49.427 0 01-1.894-.178c-2.541-.264-5.424-.563-7.517.462-3.395 1.659-4.684 4.457-4.527 6.677h-6.92c.172-11.417 9.433-20.678 20.858-20.85zM5.816 27.327h7.004c.114.833-.17 1.688-.477 2.599-.448 1.345-.96 2.868-.227 4.605l.085.2h4.442l.014-.314c.021-.462-.242-1.338-1.296-1.73.242-.284.698-.74 1.488-1.323-.107.896-.085 1.979.42 3.167l.086.2h4.342l.014-.314c.021-.49-.278-1.459-1.502-1.8.029-.442.2-1.503 1.054-2.969 1.067.164 3.203.299 5.16-.69-.22 1.117-.49 3.274.25 5.232v14c-11.425-.178-20.686-9.439-20.857-20.864zm21.511 20.857v-13.46h4.321v-.328c0-1.09-.875-1.495-1.701-1.765.1-.25.263-.641.498-1.11 1.374 2.284 2.919 3.124 2.99 3.16l.071.035h4.1v-.327c0-1.239-1.124-1.588-2.028-1.865-.022-.007-.492-.2-1.225-3.203a2.78 2.78 0 01.27-2.008h13.561c-.17 11.44-9.432 20.7-20.857 20.871z" fill="#000"/><path d="M37.912 22.458a.293.293 0 01-.291.292.293.293 0 01-.292-.292c0-.157.128-.292.292-.292a.302.302 0 01.291.292z" fill="#000"/><path d="M20.316 23.654c.17 2.804-1.659 5.096-1.659 5.096s1.445-.953 2.542-2.769c.42-.697 1.494-.163 1.195.598-.163.406-.363.826-.612 1.26 0 0 1.31-.583 2.392-2.128.463-.662 1.474-.078 1.16.662l-.078.185s1.103-.662 1.93-2.05c.355-.598 1.266-.335 1.245.363-.014.413-.05.847-.114 1.288-.37 2.606.228 4.271.228 4.271s-.143-2.534.89-4.94c.178-.413.306-.811.405-1.196.214-.825 1.467-.555 1.31.285-.043.214-.107.42-.2.634-.918 2.12-.918 3.146-.918 3.146s1.602-4.093 4.008-4.84c2.406-.748 3.225-1.645 3.225-1.645l.142-.37c.05-.135.164-.598-.448-.826-.634-.242-1.453.377-1.716.64l-.178.179-.213-.128c-.029-.014-2.983-1.744-5.51-.968-1.203.37-2.968.185-4.826-.008-2.214-.227-4.691-.484-6.563.157.128.014 2.2.384 2.363 3.104z" fill="#AA7F55"/><path d="M21.79 21.568c.192.441.341.883.384 1.367a2.59 2.59 0 01-.014.57c-.015.099-.1.362-.029.426.078.064.32-.007.413-.021.164-.029.334-.064.498-.029.171.036.32.136.42.285.029.036.057.128.093.171.007 0 .028.007.042.007.05 0 .093-.014.136-.035.163-.079.299-.2.462-.27a1.89 1.89 0 01.563-.122c.199-.014.427-.007.612.071.12.057.285.235.427.228.114 0 .206-.164.278-.242.106-.121.227-.213.37-.299.356-.2.747-.299 1.153-.349.399-.05.797-.035 1.196 0 .12.014.228.029.341.071.079.029.157.079.235.065.143-.022.264-.178.363-.264.314-.27.705-.413 1.118-.377.427.035.797.242 1.21.313.684.114 1.289-.342 1.872-.612.306-.142.62-.256.961-.285.484-.043.983.036 1.467-.05.398-.064.704-.256.96-.57.022-.028.043-.049.065-.078l.021-.056c.05-.136.164-.598-.448-.826-.634-.242-1.453.377-1.716.64l-.178.178-.213-.128c-.029-.014-2.983-1.744-5.51-.968-1.203.37-2.968.185-4.826-.007-1.16-.12-2.4-.249-3.58-.249.376.42.64.954.853 1.445z" fill="#8E6036"/><path d="M23.69 21.71c.27.335.59.2.96.15.321-.043.62.007.94.057.328.05.648-.014.969-.114.647-.2 1.245-.477 1.943-.47.349 0 .67.086.997.207.32.12.619.206.96.242.691.078 1.417.092 2.093-.079.35-.092.69-.15 1.054-.163.356-.015.712 0 1.068 0 .697-.008 1.373-.114 2.007-.42.192-.093.377-.2.548-.32a.994.994 0 00-.263-.143c-.634-.242-1.452.377-1.716.64l-.178.178-.213-.128c-.029-.014-2.983-1.744-5.51-.968-1.203.37-2.968.185-4.826-.007-.491-.05-.997-.1-1.502-.142.242.477.327 1.06.669 1.48z" fill="#7C4D27"/><path d="M32.182 13.425l.74.47.043.199-.74-.47.1.448.74.47.043.2-.74-.47.099.448.74.47.043.2-.74-.47.12.548 1.21.761 1.061 4.713c.15-.036.3-.079.449-.114l-1.054-4.698.762-1.21-.121-.549-.47.74-.042-.199.47-.74-.1-.449-.47.74-.043-.198.47-.74-.1-.45-.47.741-.042-.2.47-.74-.136-.612-.94 1.48-1.48-.939.128.62zm-4.271-.285l.819.306.085.185-.819-.306.193.413.818.306.086.185-.819-.306.192.413.819.299.085.185-.818-.3.235.513 1.338.492 2.022 4.385c.142-.065.277-.136.412-.207l-2.014-4.37.491-1.339-.235-.512-.299.818-.085-.185.299-.819-.192-.412-.3.818-.085-.185.3-.819-.193-.412-.306.818-.086-.185.3-.818-.264-.57-.605 1.644-1.644-.605.27.57z" fill="#000"/></svg>