<svg width="256" height="256" viewBox="0 0 256 256" fill="none" xmlns="http://www.w3.org/2000/svg">
<path d="M173.606 173.367C169.209 186.652 160.861 198.278 149.679 206.69C138.496 215.103 125.012 219.902 111.029 220.445C110.156 220.445 109.282 220.445 108.392 220.445H0V82.9321L82.3943 83.1586C79.067 93.2637 78.1319 104.003 79.6624 114.531C81.1929 125.059 85.1473 135.088 91.2141 143.828C97.2808 152.567 105.294 159.778 114.623 164.893C123.951 170.008 134.34 172.886 144.971 173.302L173.606 173.367Z" fill="#141F2B"/>
<path d="M256 36.0161V173.529L173.606 173.302C176.933 163.197 177.868 152.458 176.338 141.93C174.807 131.401 170.853 121.373 164.786 112.633C158.719 103.894 150.706 96.6827 141.377 91.5679C132.049 86.4531 121.66 83.5744 111.029 83.1587L82.4268 83.0778C86.8238 69.7931 95.1715 58.1672 106.354 49.7544C117.536 41.3417 131.02 36.543 145.003 36C145.877 36 146.75 36 147.64 36L256 36.0161Z" fill="#141F2B"/>
</svg>
