<svg width="72" height="31" viewBox="0 0 72 31" fill="none" xmlns="http://www.w3.org/2000/svg">
<path d="M3.5939 30.1582H0.0744629V22.9843H3.95495C6.54307 22.9843 8.17288 24.6833 8.17288 26.5662C8.16276 28.6127 6.37605 30.1582 3.5939 30.1582ZM3.47074 24.4218H2.121C2.121 25.8744 2.10919 27.2647 2.10919 28.719H3.43868C5.20852 28.719 6.29338 27.7354 6.29338 26.61C6.28494 25.4307 5.53752 24.4184 3.47074 24.4184V24.4218Z" fill="white"/>
<path d="M13.2813 30.2594C10.7235 30.2594 9.16961 28.8169 9.17974 26.5763C9.17974 25.3953 9.18986 24.162 9.18986 22.9843H11.1993L11.2094 26.5054C11.2094 28.1116 12.053 28.6633 13.2863 28.6633C14.4015 28.6633 15.2822 27.948 15.2822 26.47V22.9843H17.3068V26.4852C17.2933 28.8067 15.7681 30.2594 13.2813 30.2594Z" fill="white"/>
<path d="M18.8373 22.9843H25.5488V24.4589H20.8838C20.8838 24.9296 20.8737 25.4003 20.8737 25.8812H24.8655V27.3136H20.8838V28.6735H25.6821V30.1582H18.8271L18.8373 22.9843Z" fill="white"/>
<path d="M27.1753 22.9843H29.2218V28.6127H34.1534V30.1582H27.1854L27.1753 22.9843Z" fill="white"/>
<path d="M38.8691 26.0044C38.8691 26.7062 38.8691 27.4351 38.8691 28.1319H37.845V24.4319H38.4777L40.9645 26.4565C40.9645 25.7817 40.9645 25.1068 40.9645 24.4319H41.9768V28.1319H41.4707L38.8691 26.0044Z" fill="white"/>
<path d="M42.8036 24.4319H46.2656V25.1911H43.8597C43.8597 25.4341 43.8597 25.677 43.8597 25.9251H45.9198V26.664H43.8597V27.3659H46.3348V28.1319H42.7917L42.8036 24.4319Z" fill="white"/>
<path d="M49.5809 28.1369H48.5146V25.1911H46.9421V24.4319H51.1601V25.1911H49.5876L49.5809 28.1369Z" fill="white"/>
<path d="M55.5449 28.1319L54.649 25.7142C54.3639 26.5004 54.1209 27.3406 53.8307 28.1319H53.0698L51.5598 24.5686V24.4319H52.6362L53.5186 26.6033C53.7565 25.8846 53.9573 25.1456 54.1935 24.4285H55.0961L55.9397 26.6455C56.2198 25.9116 56.4627 25.1624 56.7361 24.4285H57.6977V24.5652L56.2451 28.1285L55.5449 28.1319Z" fill="white"/>
<path d="M60.4228 28.2331C59.2519 28.2331 58.0608 27.5785 58.0608 26.2844C58.0608 24.9482 59.2604 24.3256 60.4228 24.3256C61.5853 24.3256 62.7849 25.0174 62.7849 26.2996C62.7849 27.5819 61.5954 28.2331 60.4228 28.2331ZM60.4228 25.1287C59.5253 25.1287 59.0562 25.645 59.0562 26.2996C59.0562 26.9171 59.5253 27.43 60.4228 27.43C61.3204 27.43 61.7911 26.934 61.7911 26.2996C61.7911 25.6652 61.3086 25.1287 60.4228 25.1287Z" fill="white"/>
<path d="M64.9257 26.7383H64.5141V28.1319H63.468V24.4319H65.7862C66.7259 24.4319 67.2169 24.8756 67.2169 25.5505C67.2169 26.1005 66.6669 26.5324 66.0612 26.6691L67.3215 27.948V28.1319H66.3092L64.9257 26.7383ZM65.6225 25.1911H64.5141V25.947H65.5584C66.014 25.947 66.1877 25.7513 66.1877 25.5556C66.1877 25.3599 66.0764 25.1911 65.6225 25.1911V25.1911Z" fill="white"/>
<path d="M69.5553 26.5274C69.4018 26.659 69.2533 26.7906 69.0947 26.9171V28.1319H68.0352V24.4319H69.0896V25.8458C69.6397 25.3767 70.193 24.8959 70.7431 24.4319H71.946L70.2588 25.9149L72 28.1319H70.7566L69.5553 26.5274Z" fill="white"/>
<path d="M34.2598 24.2244C33.8718 24.2244 33.5461 23.9595 33.5461 23.6221C33.5461 23.2846 33.8718 23.0197 34.2598 23.0197C34.6479 23.0197 34.9769 23.2846 34.9769 23.6221C34.9769 23.9595 34.6512 24.2244 34.2598 24.2244ZM34.2598 23.1345C34.1171 23.1222 33.9753 23.1664 33.8649 23.2576C33.7545 23.3488 33.6842 23.4796 33.6693 23.6221C33.6693 23.8853 33.9291 24.108 34.2598 24.108C34.5905 24.108 34.852 23.8853 34.852 23.6221C34.852 23.3589 34.5922 23.1345 34.2598 23.1345ZM34.2379 23.6845H34.1721V23.9376H34.0034V23.2627H34.3408C34.5095 23.2627 34.6023 23.3302 34.6023 23.4618C34.6003 23.5116 34.5813 23.5592 34.5485 23.5966C34.5156 23.6341 34.4709 23.6592 34.4218 23.6676C34.4893 23.7452 34.5551 23.8279 34.6226 23.9038V23.9342H34.4623C34.4049 23.8768 34.302 23.752 34.2379 23.6845ZM34.3374 23.401H34.1687V23.5529H34.3239C34.3998 23.5529 34.4403 23.509 34.4403 23.4685C34.4403 23.428 34.4167 23.3977 34.3374 23.3977V23.401Z" fill="white"/>
<path d="M18.105 14.3258C17.6465 15.7112 16.7759 16.9236 15.6097 17.801C14.4435 18.6783 13.0373 19.1788 11.5791 19.2354C11.4879 19.2354 11.3968 19.2354 11.304 19.2354H0V4.89447L8.59276 4.91809C8.24577 5.97193 8.14824 7.09195 8.30785 8.1899C8.46747 9.28785 8.87987 10.3337 9.51256 11.2452C10.1452 12.1566 10.9809 12.9086 11.9538 13.442C12.9267 13.9754 14.0101 14.2757 15.1187 14.319L18.105 14.3258Z" fill="white"/>
<path d="M26.6978 0.00168367V14.3426L18.1051 14.319C18.4521 13.2652 18.5496 12.1452 18.39 11.0472C18.2304 9.94926 17.818 8.90337 17.1853 7.99195C16.5526 7.08053 15.7169 6.32849 14.744 5.79508C13.7712 5.26166 12.6878 4.96145 11.5791 4.9181L8.59619 4.90967C9.05475 3.52422 9.92531 2.31178 11.0915 1.43442C12.2577 0.557073 13.6639 0.0566298 15.1222 0C15.2133 0 15.3044 0 15.3972 0L26.6978 0.00168367Z" fill="white"/>
</svg>
